<svg width="176" height="25" viewBox="0 0 176 25" fill="none" xmlns="http://www.w3.org/2000/svg">
<path d="M62.7607 8.89951H57.6666L56.6623 11.2348H54.712L59.2967 1.14415H61.1597L65.7589 11.2348H63.7795L62.7607 8.89951ZM62.1349 7.42916L60.2137 3.01812L58.307 7.42916H62.1349Z" fill="white"/>
<path d="M81.4038 1.14415L78.0272 11.2348H76.0187L73.5007 3.76771L70.9391 11.2348H68.916L65.5394 1.14415H67.5042L70.0367 8.81302L72.6711 1.14415H74.4177L76.9938 8.85627L79.5991 1.14415H81.4038Z" fill="white"/>
<path d="M89.2261 8.89951H84.132L83.1278 11.2348H81.1775L85.7621 1.14415H87.6251L92.2244 11.2348H90.2449L89.2261 8.89951ZM88.6003 7.42916L86.6791 3.01812L84.7724 7.42916H88.6003Z" fill="white"/>
<path d="M100.335 6.07414H102.125V10.096C101.601 10.5092 100.99 10.8263 100.291 11.0474C99.5927 11.2684 98.8747 11.3789 98.1373 11.3789C97.099 11.3789 96.1627 11.1579 95.3282 10.7158C94.4938 10.2641 93.8388 9.64429 93.3634 8.85627C92.8879 8.06824 92.6502 7.1793 92.6502 6.18946C92.6502 5.19962 92.8879 4.31068 93.3634 3.52265C93.8388 2.73462 94.4938 2.11958 95.3282 1.67751C96.1724 1.22584 97.1184 1 98.1664 1C99.0202 1 99.7965 1.13935 100.495 1.41804C101.194 1.69673 101.781 2.10516 102.256 2.64333L101.063 3.79654C100.286 3.02773 99.3501 2.64333 98.2537 2.64333C97.5357 2.64333 96.8953 2.79229 96.3325 3.0902C95.7794 3.38811 95.3428 3.80615 95.0226 4.34432C94.7121 4.88248 94.5568 5.49753 94.5568 6.18946C94.5568 6.86217 94.7121 7.46761 95.0226 8.00577C95.3428 8.54394 95.7794 8.96678 96.3325 9.27431C96.8953 9.58183 97.5308 9.73559 98.2392 9.73559C99.0348 9.73559 99.7334 9.56261 100.335 9.21664V6.07414Z" fill="white"/>
<path d="M111.287 11.2348L109.205 8.27966C109.118 8.28927 108.987 8.29407 108.812 8.29407H106.513V11.2348H104.621V1.14415H108.812C109.695 1.14415 110.462 1.2883 111.112 1.57661C111.772 1.86491 112.276 2.27814 112.626 2.81631C112.975 3.35448 113.15 3.99355 113.15 4.73353C113.15 5.49273 112.961 6.14621 112.582 6.69399C112.213 7.24177 111.68 7.6502 110.981 7.91928L113.324 11.2348H111.287ZM111.243 4.73353C111.243 4.08965 111.03 3.59473 110.603 3.24877C110.176 2.9028 109.55 2.72982 108.725 2.72982H106.513V6.75165H108.725C109.55 6.75165 110.176 6.57867 110.603 6.23271C111.03 5.87713 111.243 5.37741 111.243 4.73353Z" fill="white"/>
<path d="M120.026 11.3789C118.988 11.3789 118.051 11.1579 117.217 10.7158C116.382 10.2641 115.728 9.64429 115.252 8.85627C114.777 8.05863 114.539 7.16969 114.539 6.18946C114.539 5.20923 114.777 4.3251 115.252 3.53707C115.728 2.73943 116.382 2.11958 117.217 1.67751C118.051 1.22584 118.988 1 120.026 1C121.064 1 122.001 1.22584 122.835 1.67751C123.669 2.11958 124.324 2.73462 124.8 3.52265C125.275 4.31068 125.513 5.19962 125.513 6.18946C125.513 7.1793 125.275 8.06824 124.8 8.85627C124.324 9.64429 123.669 10.2641 122.835 10.7158C122.001 11.1579 121.064 11.3789 120.026 11.3789ZM120.026 9.73559C120.705 9.73559 121.316 9.58663 121.86 9.28872C122.403 8.9812 122.83 8.55835 123.141 8.02019C123.451 7.47241 123.606 6.86217 123.606 6.18946C123.606 5.51675 123.451 4.91132 123.141 4.37315C122.83 3.82537 122.403 3.40253 121.86 3.10461C121.316 2.79709 120.705 2.64333 120.026 2.64333C119.347 2.64333 118.735 2.79709 118.192 3.10461C117.649 3.40253 117.222 3.82537 116.911 4.37315C116.601 4.91132 116.446 5.51675 116.446 6.18946C116.446 6.86217 116.601 7.47241 116.911 8.02019C117.222 8.55835 117.649 8.9812 118.192 9.28872C118.735 9.58663 119.347 9.73559 120.026 9.73559Z" fill="white"/>
<path d="M134.699 11.3789C133.913 11.3789 133.152 11.2684 132.414 11.0474C131.687 10.8263 131.109 10.5332 130.682 10.168L131.337 8.71211C131.754 9.03886 132.264 9.30794 132.865 9.51936C133.477 9.72118 134.088 9.82208 134.699 9.82208C135.456 9.82208 136.019 9.70196 136.388 9.4617C136.766 9.22145 136.955 8.90432 136.955 8.5103C136.955 8.222 136.849 7.98655 136.635 7.80396C136.431 7.61176 136.169 7.4628 135.849 7.35709C135.529 7.25138 135.092 7.13125 134.539 6.99671C133.763 6.81412 133.132 6.63152 132.647 6.44893C132.172 6.26634 131.759 5.98284 131.41 5.59844C131.07 5.20442 130.901 4.67587 130.901 4.01277C130.901 3.45538 131.051 2.95085 131.352 2.49918C131.662 2.03789 132.123 1.67271 132.734 1.40362C133.355 1.13454 134.112 1 135.005 1C135.626 1 136.237 1.07688 136.839 1.23064C137.44 1.3844 137.96 1.60544 138.396 1.89374L137.799 3.34967C137.353 3.0902 136.887 2.89319 136.402 2.75865C135.917 2.62411 135.446 2.55684 134.99 2.55684C134.243 2.55684 133.685 2.68177 133.317 2.93163C132.958 3.18149 132.778 3.51304 132.778 3.92628C132.778 4.21458 132.88 4.45003 133.084 4.63262C133.297 4.81521 133.564 4.95937 133.884 5.06508C134.204 5.17079 134.641 5.29091 135.194 5.42546C135.951 5.59844 136.572 5.78103 137.057 5.97323C137.542 6.15582 137.955 6.43932 138.294 6.82373C138.644 7.20813 138.818 7.72708 138.818 8.38056C138.818 8.93795 138.663 9.44248 138.353 9.89416C138.052 10.3458 137.591 10.7062 136.97 10.9753C136.349 11.2444 135.592 11.3789 134.699 11.3789Z" fill="white"/>
<path d="M142.619 2.72982H139.242V1.14415H147.888V2.72982H144.511V11.2348H142.619V2.72982Z" fill="white"/>
<path d="M153.561 7.67422V11.2348H151.669V7.70305L147.667 1.14415H149.69L152.673 6.05972L155.686 1.14415H157.549L153.561 7.67422Z" fill="white"/>
<path d="M158.646 1.14415H160.538V9.6491H165.865V11.2348H158.646V1.14415Z" fill="white"/>
<path d="M175 9.66352V11.2348H167.359V1.14415H174.796V2.71541H169.251V5.33896H174.17V6.88139H169.251V9.66352H175Z" fill="white"/>
<path d="M62.7607 8.89951H57.6666L56.6623 11.2348H54.712L59.2967 1.14415H61.1597L65.7589 11.2348H63.7795L62.7607 8.89951ZM62.1349 7.42916L60.2137 3.01812L58.307 7.42916H62.1349Z" stroke="white" stroke-width="0.25"/>
<path d="M81.4038 1.14415L78.0272 11.2348H76.0187L73.5007 3.76771L70.9391 11.2348H68.916L65.5394 1.14415H67.5042L70.0367 8.81302L72.6711 1.14415H74.4177L76.9938 8.85627L79.5991 1.14415H81.4038Z" stroke="white" stroke-width="0.25"/>
<path d="M89.2261 8.89951H84.132L83.1278 11.2348H81.1775L85.7621 1.14415H87.6251L92.2244 11.2348H90.2449L89.2261 8.89951ZM88.6003 7.42916L86.6791 3.01812L84.7724 7.42916H88.6003Z" stroke="white" stroke-width="0.25"/>
<path d="M100.335 6.07414H102.125V10.096C101.601 10.5092 100.99 10.8263 100.291 11.0474C99.5927 11.2684 98.8747 11.3789 98.1373 11.3789C97.099 11.3789 96.1627 11.1579 95.3282 10.7158C94.4938 10.2641 93.8388 9.64429 93.3634 8.85627C92.8879 8.06824 92.6502 7.1793 92.6502 6.18946C92.6502 5.19962 92.8879 4.31068 93.3634 3.52265C93.8388 2.73462 94.4938 2.11958 95.3282 1.67751C96.1724 1.22584 97.1184 1 98.1664 1C99.0202 1 99.7965 1.13935 100.495 1.41804C101.194 1.69673 101.781 2.10516 102.256 2.64333L101.063 3.79654C100.286 3.02773 99.3501 2.64333 98.2537 2.64333C97.5357 2.64333 96.8953 2.79229 96.3325 3.0902C95.7794 3.38811 95.3428 3.80615 95.0226 4.34432C94.7121 4.88248 94.5568 5.49753 94.5568 6.18946C94.5568 6.86217 94.7121 7.46761 95.0226 8.00577C95.3428 8.54394 95.7794 8.96678 96.3325 9.27431C96.8953 9.58183 97.5308 9.73559 98.2392 9.73559C99.0348 9.73559 99.7334 9.56261 100.335 9.21664V6.07414Z" stroke="white" stroke-width="0.25"/>
<path d="M111.287 11.2348L109.205 8.27966C109.118 8.28927 108.987 8.29407 108.812 8.29407H106.513V11.2348H104.621V1.14415H108.812C109.695 1.14415 110.462 1.2883 111.112 1.57661C111.772 1.86491 112.276 2.27814 112.626 2.81631C112.975 3.35448 113.15 3.99355 113.15 4.73353C113.15 5.49273 112.961 6.14621 112.582 6.69399C112.213 7.24177 111.68 7.6502 110.981 7.91928L113.324 11.2348H111.287ZM111.243 4.73353C111.243 4.08965 111.03 3.59473 110.603 3.24877C110.176 2.9028 109.55 2.72982 108.725 2.72982H106.513V6.75165H108.725C109.55 6.75165 110.176 6.57867 110.603 6.23271C111.03 5.87713 111.243 5.37741 111.243 4.73353Z" stroke="white" stroke-width="0.25"/>
<path d="M120.026 11.3789C118.988 11.3789 118.051 11.1579 117.217 10.7158C116.382 10.2641 115.728 9.64429 115.252 8.85627C114.777 8.05863 114.539 7.16969 114.539 6.18946C114.539 5.20923 114.777 4.3251 115.252 3.53707C115.728 2.73943 116.382 2.11958 117.217 1.67751C118.051 1.22584 118.988 1 120.026 1C121.064 1 122.001 1.22584 122.835 1.67751C123.669 2.11958 124.324 2.73462 124.8 3.52265C125.275 4.31068 125.513 5.19962 125.513 6.18946C125.513 7.1793 125.275 8.06824 124.8 8.85627C124.324 9.64429 123.669 10.2641 122.835 10.7158C122.001 11.1579 121.064 11.3789 120.026 11.3789ZM120.026 9.73559C120.705 9.73559 121.316 9.58663 121.86 9.28872C122.403 8.9812 122.83 8.55835 123.141 8.02019C123.451 7.47241 123.606 6.86217 123.606 6.18946C123.606 5.51675 123.451 4.91132 123.141 4.37315C122.83 3.82537 122.403 3.40253 121.86 3.10461C121.316 2.79709 120.705 2.64333 120.026 2.64333C119.347 2.64333 118.735 2.79709 118.192 3.10461C117.649 3.40253 117.222 3.82537 116.911 4.37315C116.601 4.91132 116.446 5.51675 116.446 6.18946C116.446 6.86217 116.601 7.47241 116.911 8.02019C117.222 8.55835 117.649 8.9812 118.192 9.28872C118.735 9.58663 119.347 9.73559 120.026 9.73559Z" stroke="white" stroke-width="0.25"/>
<path d="M134.699 11.3789C133.913 11.3789 133.152 11.2684 132.414 11.0474C131.687 10.8263 131.109 10.5332 130.682 10.168L131.337 8.71211C131.754 9.03886 132.264 9.30794 132.865 9.51936C133.477 9.72118 134.088 9.82208 134.699 9.82208C135.456 9.82208 136.019 9.70196 136.388 9.4617C136.766 9.22145 136.955 8.90432 136.955 8.5103C136.955 8.222 136.849 7.98655 136.635 7.80396C136.431 7.61176 136.169 7.4628 135.849 7.35709C135.529 7.25138 135.092 7.13125 134.539 6.99671C133.763 6.81412 133.132 6.63152 132.647 6.44893C132.172 6.26634 131.759 5.98284 131.41 5.59844C131.07 5.20442 130.901 4.67587 130.901 4.01277C130.901 3.45538 131.051 2.95085 131.352 2.49918C131.662 2.03789 132.123 1.67271 132.734 1.40362C133.355 1.13454 134.112 1 135.005 1C135.626 1 136.237 1.07688 136.839 1.23064C137.44 1.3844 137.96 1.60544 138.396 1.89374L137.799 3.34967C137.353 3.0902 136.887 2.89319 136.402 2.75865C135.917 2.62411 135.446 2.55684 134.99 2.55684C134.243 2.55684 133.685 2.68177 133.317 2.93163C132.958 3.18149 132.778 3.51304 132.778 3.92628C132.778 4.21458 132.88 4.45003 133.084 4.63262C133.297 4.81521 133.564 4.95937 133.884 5.06508C134.204 5.17079 134.641 5.29091 135.194 5.42546C135.951 5.59844 136.572 5.78103 137.057 5.97323C137.542 6.15582 137.955 6.43932 138.294 6.82373C138.644 7.20813 138.818 7.72708 138.818 8.38056C138.818 8.93795 138.663 9.44248 138.353 9.89416C138.052 10.3458 137.591 10.7062 136.97 10.9753C136.349 11.2444 135.592 11.3789 134.699 11.3789Z" stroke="white" stroke-width="0.25"/>
<path d="M142.619 2.72982H139.242V1.14415H147.888V2.72982H144.511V11.2348H142.619V2.72982Z" stroke="white" stroke-width="0.25"/>
<path d="M153.561 7.67422V11.2348H151.669V7.70305L147.667 1.14415H149.69L152.673 6.05972L155.686 1.14415H157.549L153.561 7.67422Z" stroke="white" stroke-width="0.25"/>
<path d="M158.646 1.14415H160.538V9.6491H165.865V11.2348H158.646V1.14415Z" stroke="white" stroke-width="0.25"/>
<path d="M175 9.66352V11.2348H167.359V1.14415H174.796V2.71541H169.251V5.33896H174.17V6.88139H169.251V9.66352H175Z" stroke="white" stroke-width="0.25"/>
<g opacity="0.8">
<path d="M57.219 15.669C58.1604 15.669 58.8981 15.8917 59.4321 16.337C59.966 16.7823 60.233 17.3947 60.233 18.174C60.233 18.9533 59.966 19.5656 59.4321 20.011C58.8981 20.4493 58.1604 20.6685 57.219 20.6685H55.2378V22.9752H54.458V15.669H57.219ZM57.1979 19.9901C57.9286 19.9901 58.4871 19.8335 58.8735 19.5204C59.2599 19.2003 59.4531 18.7515 59.4531 18.174C59.4531 17.5825 59.2599 17.1303 58.8735 16.8171C58.4871 16.4971 57.9286 16.337 57.1979 16.337H55.2378V19.9901H57.1979Z" fill="white"/>
<path d="M63.5136 17.4434C64.2373 17.4434 64.7923 17.6243 65.1787 17.9861C65.5651 18.341 65.7583 18.8698 65.7583 19.5726V22.9752H65.0417V22.1193C64.8731 22.4046 64.6237 22.6272 64.2935 22.7873C63.9703 22.9473 63.5839 23.0273 63.1343 23.0273C62.516 23.0273 62.0242 22.8812 61.6589 22.589C61.2936 22.2967 61.1109 21.9106 61.1109 21.4304C61.1109 20.9642 61.2795 20.5885 61.6168 20.3032C61.961 20.0179 62.5055 19.8753 63.2502 19.8753H65.0101V19.5413C65.0101 19.0681 64.8766 18.7098 64.6096 18.4662C64.3427 18.2157 63.9527 18.0905 63.4399 18.0905C63.0886 18.0905 62.7514 18.1496 62.4282 18.2679C62.105 18.3793 61.8275 18.5358 61.5957 18.7376L61.2585 18.1844C61.5395 17.9478 61.8767 17.7669 62.2701 17.6417C62.6636 17.5095 63.0781 17.4434 63.5136 17.4434ZM63.2502 22.4429C63.6717 22.4429 64.0335 22.3489 64.3356 22.161C64.6377 21.9662 64.8625 21.6879 65.0101 21.3261V20.4285H63.2713C62.3228 20.4285 61.8486 20.7555 61.8486 21.4096C61.8486 21.7296 61.9715 21.9836 62.2174 22.1715C62.4633 22.3524 62.8076 22.4429 63.2502 22.4429Z" fill="white"/>
<path d="M70.3347 20.1153C70.7281 20.2058 71.0302 20.3623 71.241 20.585C71.4588 20.8077 71.5677 21.079 71.5677 21.3991C71.5677 21.7192 71.4552 22.0045 71.2304 22.255C71.0126 22.5055 70.7141 22.7003 70.3347 22.8395C69.9553 22.9717 69.5373 23.0378 69.0806 23.0378C68.6802 23.0378 68.2868 22.9821 67.9003 22.8708C67.5139 22.7525 67.1767 22.582 66.8887 22.3594L67.1416 21.8062C67.3945 21.9941 67.6896 22.1402 68.0268 22.2445C68.364 22.3489 68.7048 22.4011 69.049 22.4011C69.5619 22.4011 69.9799 22.3072 70.3031 22.1193C70.6333 21.9245 70.7984 21.6635 70.7984 21.3365C70.7984 21.0443 70.6649 20.8181 70.3979 20.6581C70.1309 20.4911 69.7656 20.4076 69.3019 20.4076H68.3535V19.8648H69.2598C69.6743 19.8648 70.008 19.7883 70.2609 19.6352C70.5138 19.4752 70.6403 19.2629 70.6403 18.9985C70.6403 18.7063 70.4963 18.4767 70.2082 18.3097C69.9272 18.1427 69.5584 18.0592 69.1017 18.0592C68.5045 18.0592 67.9144 18.2088 67.3313 18.508L67.1205 17.9339C67.7809 17.593 68.4659 17.4225 69.1755 17.4225C69.597 17.4225 69.9764 17.4851 70.3136 17.6104C70.6579 17.7287 70.9248 17.8991 71.1145 18.1218C71.3112 18.3445 71.4096 18.6019 71.4096 18.8942C71.4096 19.1725 71.3112 19.4195 71.1145 19.6352C70.9248 19.8509 70.6649 20.011 70.3347 20.1153Z" fill="white"/>
<path d="M76.1221 17.4434C76.642 17.4434 77.1127 17.5617 77.5342 17.7982C77.9557 18.0279 78.2859 18.3549 78.5248 18.7794C78.7637 19.2038 78.8831 19.6874 78.8831 20.2301C78.8831 20.7798 78.7637 21.2669 78.5248 21.6914C78.2859 22.1158 77.9557 22.4463 77.5342 22.6829C77.1197 22.9125 76.649 23.0273 76.1221 23.0273C75.6724 23.0273 75.265 22.9369 74.8996 22.756C74.5413 22.5681 74.2463 22.2967 74.0144 21.9419V25H73.2662V17.4851H73.9828V18.5706C74.2076 18.2088 74.5027 17.9305 74.868 17.7356C75.2404 17.5408 75.6584 17.4434 76.1221 17.4434ZM76.0694 22.3698C76.4558 22.3698 76.8071 22.2828 77.1232 22.1089C77.4393 21.9279 77.6852 21.674 77.8609 21.3469C78.0435 21.0199 78.1349 20.6476 78.1349 20.2301C78.1349 19.8126 78.0435 19.4439 77.8609 19.1238C77.6852 18.7967 77.4393 18.5428 77.1232 18.3619C76.8071 18.1809 76.4558 18.0905 76.0694 18.0905C75.6759 18.0905 75.3212 18.1809 75.005 18.3619C74.6959 18.5428 74.45 18.7967 74.2673 19.1238C74.0917 19.4439 74.0039 19.8126 74.0039 20.2301C74.0039 20.6476 74.0917 21.0199 74.2673 21.3469C74.45 21.674 74.6959 21.9279 75.005 22.1089C75.3212 22.2828 75.6759 22.3698 76.0694 22.3698Z" fill="white"/>
<path d="M82.3672 17.4434C83.0908 17.4434 83.6458 17.6243 84.0322 17.9861C84.4186 18.341 84.6119 18.8698 84.6119 19.5726V22.9752H83.8952V22.1193C83.7266 22.4046 83.4772 22.6272 83.147 22.7873C82.8239 22.9473 82.4375 23.0273 81.9878 23.0273C81.3696 23.0273 80.8778 22.8812 80.5125 22.589C80.1472 22.2967 79.9645 21.9106 79.9645 21.4304C79.9645 20.9642 80.1331 20.5885 80.4703 20.3032C80.8146 20.0179 81.359 19.8753 82.1037 19.8753H83.8636V19.5413C83.8636 19.0681 83.7302 18.7098 83.4632 18.4662C83.1962 18.2157 82.8063 18.0905 82.2934 18.0905C81.9422 18.0905 81.6049 18.1496 81.2818 18.2679C80.9586 18.3793 80.6811 18.5358 80.4492 18.7376L80.112 18.1844C80.393 17.9478 80.7303 17.7669 81.1237 17.6417C81.5171 17.5095 81.9316 17.4434 82.3672 17.4434ZM82.1037 22.4429C82.5253 22.4429 82.8871 22.3489 83.1892 22.161C83.4913 21.9662 83.7161 21.6879 83.8636 21.3261V20.4285H82.1248C81.1764 20.4285 80.7022 20.7555 80.7022 21.4096C80.7022 21.7296 80.8251 21.9836 81.071 22.1715C81.3169 22.3524 81.6611 22.4429 82.1037 22.4429Z" fill="white"/>
<path d="M89.2909 17.6208C89.8038 17.6208 90.2604 17.7356 90.6609 17.9652C91.0684 18.1879 91.3845 18.5045 91.6093 18.915C91.8341 19.3186 91.9465 19.7813 91.9465 20.3032C91.9465 20.839 91.8271 21.3156 91.5882 21.7331C91.3564 22.1437 91.0297 22.4637 90.6082 22.6934C90.1867 22.923 89.7019 23.0378 89.1539 23.0378C88.2336 23.0378 87.5205 22.7177 87.0146 22.0775C86.5088 21.4374 86.2559 20.5537 86.2559 19.4265C86.2559 18.2505 86.4807 17.3494 86.9303 16.7232C87.387 16.097 88.0966 15.6725 89.0591 15.4498L91.5461 14.8862L91.6726 15.5647L89.3331 16.097C88.5392 16.2709 87.9561 16.5806 87.5837 17.0259C87.2114 17.4643 87.0076 18.1148 86.9725 18.9777C87.1973 18.5532 87.5099 18.2227 87.9104 17.9861C88.3109 17.7426 88.771 17.6208 89.2909 17.6208ZM89.175 22.422C89.5614 22.422 89.9056 22.335 90.2077 22.161C90.5169 21.9801 90.7557 21.7296 90.9243 21.4096C91.1 21.0895 91.1878 20.7277 91.1878 20.3241C91.1878 19.9205 91.1035 19.5656 90.9349 19.2595C90.7663 18.9533 90.5274 18.7167 90.2183 18.5497C89.9162 18.3758 89.5684 18.2888 89.175 18.2888C88.7816 18.2888 88.4303 18.3758 88.1212 18.5497C87.8191 18.7167 87.5802 18.9533 87.4046 19.2595C87.236 19.5656 87.1516 19.9205 87.1516 20.3241C87.1516 20.7277 87.236 21.0895 87.4046 21.4096C87.5802 21.7296 87.8226 21.9801 88.1317 22.161C88.4408 22.335 88.7886 22.422 89.175 22.422Z" fill="white"/>
<path d="M95.837 23.0273C95.3031 23.0273 94.8219 22.9091 94.3933 22.6725C93.9648 22.4289 93.6275 22.0949 93.3816 21.6705C93.1357 21.246 93.0128 20.7659 93.0128 20.2301C93.0128 19.6944 93.1357 19.2142 93.3816 18.7898C93.6275 18.3653 93.9648 18.0348 94.3933 17.7982C94.8219 17.5617 95.3031 17.4434 95.837 17.4434C96.371 17.4434 96.8522 17.5617 97.2808 17.7982C97.7093 18.0348 98.043 18.3653 98.2819 18.7898C98.5278 19.2142 98.6508 19.6944 98.6508 20.2301C98.6508 20.7659 98.5278 21.246 98.2819 21.6705C98.043 22.0949 97.7093 22.4289 97.2808 22.6725C96.8522 22.9091 96.371 23.0273 95.837 23.0273ZM95.837 22.3698C96.2305 22.3698 96.5817 22.2828 96.8909 22.1089C97.207 21.9279 97.4529 21.674 97.6285 21.3469C97.8042 21.0199 97.892 20.6476 97.892 20.2301C97.892 19.8126 97.8042 19.4404 97.6285 19.1133C97.4529 18.7863 97.207 18.5358 96.8909 18.3619C96.5817 18.1809 96.2305 18.0905 95.837 18.0905C95.4436 18.0905 95.0888 18.1809 94.7727 18.3619C94.4636 18.5358 94.2177 18.7863 94.035 19.1133C93.8594 19.4404 93.7716 19.8126 93.7716 20.2301C93.7716 20.6476 93.8594 21.0199 94.035 21.3469C94.2177 21.674 94.4636 21.9279 94.7727 22.1089C95.0888 22.2828 95.4436 22.3698 95.837 22.3698Z" fill="white"/>
<path d="M103.943 18.1427H101.846V22.9752H101.098V18.1427H99.0007V17.4851H103.943V18.1427Z" fill="white"/>
<path d="M107.038 20.5328H105.773V22.9752H105.025V17.4851H105.773V19.8961H107.048L108.998 17.4851H109.809L107.628 20.1466L109.967 22.9752H109.082L107.038 20.5328Z" fill="white"/>
<path d="M112.953 17.4434C113.676 17.4434 114.231 17.6243 114.618 17.9861C115.004 18.341 115.197 18.8698 115.197 19.5726V22.9752H114.481V22.1193C114.312 22.4046 114.063 22.6272 113.733 22.7873C113.409 22.9473 113.023 23.0273 112.573 23.0273C111.955 23.0273 111.463 22.8812 111.098 22.589C110.733 22.2967 110.55 21.9106 110.55 21.4304C110.55 20.9642 110.719 20.5885 111.056 20.3032C111.4 20.0179 111.945 19.8753 112.689 19.8753H114.449V19.5413C114.449 19.0681 114.316 18.7098 114.049 18.4662C113.782 18.2157 113.392 18.0905 112.879 18.0905C112.528 18.0905 112.191 18.1496 111.867 18.2679C111.544 18.3793 111.267 18.5358 111.035 18.7376L110.698 18.1844C110.979 17.9478 111.316 17.7669 111.709 17.6417C112.103 17.5095 112.517 17.4434 112.953 17.4434ZM112.689 22.4429C113.111 22.4429 113.473 22.3489 113.775 22.161C114.077 21.9662 114.302 21.6879 114.449 21.3261V20.4285H112.71C111.762 20.4285 111.288 20.7555 111.288 21.4096C111.288 21.7296 111.411 21.9836 111.657 22.1715C111.902 22.3524 112.247 22.4429 112.689 22.4429Z" fill="white"/>
<path d="M122.266 23.0273C121.718 23.0273 121.226 22.9091 120.79 22.6725C120.362 22.4359 120.025 22.1054 119.779 21.6809C119.533 21.2495 119.41 20.7659 119.41 20.2301C119.41 19.6944 119.533 19.2142 119.779 18.7898C120.025 18.3653 120.362 18.0348 120.79 17.7982C121.226 17.5617 121.718 17.4434 122.266 17.4434C122.743 17.4434 123.168 17.5373 123.541 17.7252C123.92 17.9061 124.219 18.174 124.437 18.5289L123.878 18.9046C123.695 18.6332 123.464 18.4314 123.183 18.2992C122.902 18.1601 122.596 18.0905 122.266 18.0905C121.865 18.0905 121.503 18.1809 121.18 18.3619C120.864 18.5358 120.615 18.7863 120.432 19.1133C120.256 19.4404 120.169 19.8126 120.169 20.2301C120.169 20.6546 120.256 21.0303 120.432 21.3574C120.615 21.6775 120.864 21.9279 121.18 22.1089C121.503 22.2828 121.865 22.3698 122.266 22.3698C122.596 22.3698 122.902 22.3037 123.183 22.1715C123.464 22.0393 123.695 21.8375 123.878 21.5661L124.437 21.9419C124.219 22.2967 123.92 22.5681 123.541 22.756C123.161 22.9369 122.736 23.0273 122.266 23.0273Z" fill="white"/>
<path d="M127.793 17.4434C128.516 17.4434 129.071 17.6243 129.458 17.9861C129.844 18.341 130.037 18.8698 130.037 19.5726V22.9752H129.321V22.1193C129.152 22.4046 128.903 22.6272 128.573 22.7873C128.249 22.9473 127.863 23.0273 127.413 23.0273C126.795 23.0273 126.303 22.8812 125.938 22.589C125.573 22.2967 125.39 21.9106 125.39 21.4304C125.39 20.9642 125.559 20.5885 125.896 20.3032C126.24 20.0179 126.785 19.8753 127.529 19.8753H129.289V19.5413C129.289 19.0681 129.156 18.7098 128.889 18.4662C128.622 18.2157 128.232 18.0905 127.719 18.0905C127.368 18.0905 127.03 18.1496 126.707 18.2679C126.384 18.3793 126.107 18.5358 125.875 18.7376L125.538 18.1844C125.819 17.9478 126.156 17.7669 126.549 17.6417C126.943 17.5095 127.357 17.4434 127.793 17.4434ZM127.529 22.4429C127.951 22.4429 128.313 22.3489 128.615 22.161C128.917 21.9662 129.142 21.6879 129.289 21.3261V20.4285H127.55C126.602 20.4285 126.128 20.7555 126.128 21.4096C126.128 21.7296 126.251 21.9836 126.497 22.1715C126.742 22.3524 127.087 22.4429 127.529 22.4429Z" fill="white"/>
<path d="M132.029 17.4851H132.777V21.8479L136.476 17.4851H137.14V22.9752H136.392V18.6124L132.704 22.9752H132.029V17.4851ZM134.548 16.6919C134.07 16.6919 133.691 16.5736 133.41 16.337C133.129 16.1004 132.985 15.7664 132.978 15.335H133.515C133.522 15.6064 133.62 15.8256 133.81 15.9926C134 16.1526 134.246 16.2326 134.548 16.2326C134.85 16.2326 135.096 16.1526 135.286 15.9926C135.482 15.8256 135.584 15.6064 135.591 15.335H136.129C136.122 15.7664 135.974 16.1004 135.686 16.337C135.405 16.5736 135.026 16.6919 134.548 16.6919Z" fill="white"/>
<path d="M143.184 18.1427H141.087V22.9752H140.338V18.1427H138.241V17.4851H143.184V18.1427Z" fill="white"/>
<path d="M146.295 23.0273C145.761 23.0273 145.28 22.9091 144.851 22.6725C144.423 22.4289 144.085 22.0949 143.84 21.6705C143.594 21.246 143.471 20.7659 143.471 20.2301C143.471 19.6944 143.594 19.2142 143.84 18.7898C144.085 18.3653 144.423 18.0348 144.851 17.7982C145.28 17.5617 145.761 17.4434 146.295 17.4434C146.829 17.4434 147.31 17.5617 147.739 17.7982C148.167 18.0348 148.501 18.3653 148.74 18.7898C148.986 19.2142 149.109 19.6944 149.109 20.2301C149.109 20.7659 148.986 21.246 148.74 21.6705C148.501 22.0949 148.167 22.4289 147.739 22.6725C147.31 22.9091 146.829 23.0273 146.295 23.0273ZM146.295 22.3698C146.688 22.3698 147.04 22.2828 147.349 22.1089C147.665 21.9279 147.911 21.674 148.087 21.3469C148.262 21.0199 148.35 20.6476 148.35 20.2301C148.35 19.8126 148.262 19.4404 148.087 19.1133C147.911 18.7863 147.665 18.5358 147.349 18.3619C147.04 18.1809 146.688 18.0905 146.295 18.0905C145.902 18.0905 145.547 18.1809 145.231 18.3619C144.922 18.5358 144.676 18.7863 144.493 19.1133C144.317 19.4404 144.23 19.8126 144.23 20.2301C144.23 20.6476 144.317 21.0199 144.493 21.3469C144.676 21.674 144.922 21.9279 145.231 22.1089C145.547 22.2828 145.902 22.3698 146.295 22.3698Z" fill="white"/>
<path d="M154.238 20.1362C154.99 20.3102 155.366 20.759 155.366 21.4826C155.366 21.9627 155.187 22.3315 154.828 22.589C154.47 22.8464 153.936 22.9752 153.226 22.9752H150.708V17.4851H153.153C153.785 17.4851 154.28 17.6069 154.639 17.8504C154.997 18.094 155.176 18.4419 155.176 18.8942C155.176 19.1934 155.092 19.4508 154.923 19.6665C154.762 19.8753 154.533 20.0318 154.238 20.1362ZM151.435 19.9275H153.1C153.529 19.9275 153.855 19.8474 154.08 19.6874C154.312 19.5274 154.428 19.2943 154.428 18.9881C154.428 18.6819 154.312 18.4523 154.08 18.2992C153.855 18.1462 153.529 18.0696 153.1 18.0696H151.435V19.9275ZM153.195 22.3907C153.673 22.3907 154.031 22.3141 154.27 22.161C154.509 22.008 154.628 21.7679 154.628 21.4409C154.628 21.1138 154.519 20.8738 154.301 20.7207C154.084 20.5607 153.739 20.4806 153.269 20.4806H151.435V22.3907H153.195Z" fill="white"/>
</g>
<path fill-rule="evenodd" clip-rule="evenodd" d="M33.1603 21.9834L21.5127 1.90283H27.9252L36.3665 16.4549L33.1603 21.9834Z" fill="#FF1744"/>
<path d="M38.1585 9.62612C40.2801 9.62612 42 7.8972 42 5.76447C42 3.63175 40.2801 1.90283 38.1585 1.90283C36.0369 1.90283 34.317 3.63175 34.317 5.76447C34.317 7.8972 36.0369 9.62612 38.1585 9.62612Z" fill="#FF1744"/>
<path fill-rule="evenodd" clip-rule="evenodd" d="M24.9642 21.9834L13.3167 1.90283H19.7291L28.1704 16.4549L24.9642 21.9834Z" fill="#FF1744"/>
<path fill-rule="evenodd" clip-rule="evenodd" d="M11.5256 1.90332C11.5256 1.90332 22.0838 20.3002 23.049 21.9838H16.7036L11.5256 12.9602L6.34534 21.9838H0C3.84036 15.2903 7.68299 8.59683 11.5256 1.90332Z" fill="#FF1744"/>
</svg>
